<svg width="128" height="128" viewBox="0 0 128 128" fill="none" xmlns="http://www.w3.org/2000/svg">
  <defs>
    <radialGradient id="halo" cx="0" cy="0" r="1" gradientUnits="userSpaceOnUse" gradientTransform="translate(48 38) rotate(46.5911) scale(70.5248)">
      <stop stop-color="#FFF2C6"/>
      <stop offset="1" stop-color="#FFF2C6" stop-opacity="0"/>
    </radialGradient>
    <linearGradient id="bottle" x1="35" y1="24" x2="89" y2="102" gradientUnits="userSpaceOnUse">
      <stop stop-color="#FFE09A"/>
      <stop offset="0.5" stop-color="#E6C27A"/>
      <stop offset="1" stop-color="#9B7244"/>
    </linearGradient>
    <linearGradient id="glass" x1="43" y1="42" x2="83" y2="88" gradientUnits="userSpaceOnUse">
      <stop stop-color="#FFFBEF" stop-opacity="0.98"/>
      <stop offset="1" stop-color="#FFF7E2" stop-opacity="0.18"/>
    </linearGradient>
  </defs>

  <circle cx="64" cy="64" r="60" fill="#102240"/>
  <circle cx="64" cy="64" r="58" stroke="#E6C27A" stroke-opacity="0.34" stroke-width="2"/>
  <circle cx="48" cy="42" r="38" fill="url(#halo)" opacity="0.42"/>
  <path d="M49 24H79C82.3137 24 85 26.6863 85 30V42C85 45.866 86.7364 49.5267 89.7318 52.2562L94.7682 56.8438C97.7636 59.5733 99.5 63.234 99.5 67.1V83C99.5 95.9787 88.9787 106.5 76 106.5H52C39.0213 106.5 28.5 95.9787 28.5 83V67.1C28.5 63.234 30.2364 59.5733 33.2318 56.8438L38.2682 52.2562C41.2636 49.5267 43 45.866 43 42V30C43 26.6863 45.6863 24 49 24Z" fill="url(#bottle)"/>
  <path d="M51 19H77V38H51V19Z" fill="#13284B"/>
  <rect x="40" y="41" width="36" height="46" rx="14" fill="url(#glass)"/>
  <path d="M58 55C64 61 63 70 51 78C62 78 70 73 75 66C79 59 77 51 67 45L58 55Z" fill="#17335E" fill-opacity="0.88"/>
  <circle cx="73" cy="43" r="4" fill="#FFF8DA"/>
  <path d="M94 29L97 22L100 29L107 32L100 35L97 42L94 35L87 32L94 29Z" fill="#FFE09A"/>
  <path d="M27 41L29.5 36L32 41L37 43.5L32 46L29.5 51L27 46L22 43.5L27 41Z" fill="#FFF3CA"/>
</svg>
